<svg width="420" height="400" viewBox="0 0 420 400" xmlns="http://www.w3.org/2000/svg">
    <path class="splat" d="M17.1154 8.16987C16.7391 6.78916 18.9765 5 18.9765 5C18.9765 5 16.2821 6.01075 15.2542 5C14.2263 3.98925 15.2542 1.33975 15.2542 1.33975C15.2542 1.33975 13.4347 3.53984 12.0306 3.16988C10.6265 2.79992 10.1695 0 10.1695 0C10.1695 0 9.71245 2.79992 8.30834 3.16988C6.90423 3.53983 5.08475 1.33975 5.08475 1.33975C5.08475 1.33975 6.11262 3.98925 5.08474 5C4.05686 6.01075 1.36246 5 1.36246 5C1.36246 5 3.59982 6.78916 3.2236 8.16986C2.84737 9.55058 0 10 0 10C0 10 2.84736 10.4494 3.2236 11.8301C3.59983 13.2108 1.36245 15 1.36245 15C1.36245 15 4.05686 13.9892 5.08474 15C6.11263 16.0107 5.08474 18.6603 5.08474 18.6603C5.08474 18.6603 6.90423 16.4602 8.30834 16.8301C9.71245 17.2001 10.1695 20 10.1695 20C10.1695 20 10.6265 17.2001 12.0306 16.8301C13.4347 16.4602 15.2542 18.6603 15.2542 18.6603C15.2542 18.6603 14.2263 16.0107 15.2542 15C16.2821 13.9892 18.9765 15 18.9765 15C18.9765 15 16.7391 13.2108 17.1154 11.8301C17.4916 10.4494 20.339 10 20.339 10C20.339 10 17.4916 9.55059 17.1154 8.16987Z"/>
    <style type="text/css">
        .splat {
            fill: #BFD200;
        }
    </style>
</svg>
